<svg xmlns="http://www.w3.org/2000/svg" xmlns:xlink="http://www.w3.org/1999/xlink" width="500" zoomAndPan="magnify" viewBox="0 0 375 374.999991" height="500" preserveAspectRatio="xMidYMid meet" version="1.0"><defs><g/><clipPath id="70e5b85a97"><path d="M 69.917969 97.257812 L 305.417969 97.257812 L 305.417969 278 L 69.917969 278 Z M 69.917969 97.257812 " clip-rule="nonzero"/></clipPath></defs><g clip-path="url(#70e5b85a97)"><path fill="#ffffff" d="M 305.03125 246.074219 L 305.03125 247.441406 C 305.03125 255.453125 301.828125 263.179688 296.171875 268.835938 C 290.515625 274.492188 282.789062 277.695312 274.777344 277.695312 C 229.675781 277.695312 145.273438 277.695312 100.171875 277.695312 C 92.164062 277.695312 84.433594 274.492188 78.777344 268.835938 C 73.125 263.132812 69.917969 255.453125 69.917969 247.394531 L 69.917969 246.027344 L 83.351562 246.027344 L 83.351562 247.394531 C 83.351562 251.871094 85.140625 256.113281 88.296875 259.269531 C 91.457031 262.425781 95.742188 264.21875 100.171875 264.21875 L 161.0625 264.21875 C 150.789062 260.210938 141.644531 253.945312 134.246094 246.027344 L 148.148438 246.027344 C 158.988281 254.605469 172.652344 259.695312 187.5 259.695312 C 202.34375 259.695312 216.011719 254.558594 226.847656 246.027344 L 240.703125 246.027344 C 233.304688 253.945312 224.164062 260.210938 213.890625 264.21875 L 274.777344 264.21875 C 279.253906 264.21875 283.496094 262.425781 286.652344 259.269531 C 289.808594 256.113281 291.601562 251.824219 291.601562 247.394531 L 291.601562 246.027344 L 305.03125 246.027344 Z M 112.664062 114.96875 L 137.496094 114.96875 L 145.980469 97.296875 L 229.015625 97.296875 L 237.5 114.96875 L 274.824219 114.96875 C 282.835938 114.96875 290.5625 118.171875 296.21875 123.828125 C 301.875 129.484375 305.078125 137.210938 305.078125 145.222656 L 305.078125 146.589844 L 291.648438 146.589844 L 291.648438 145.222656 C 291.648438 140.746094 289.855469 136.507812 286.699219 133.347656 C 283.542969 130.191406 279.253906 128.398438 274.824219 128.398438 L 213.890625 128.398438 C 224.164062 132.40625 233.304688 138.671875 240.703125 146.589844 L 226.847656 146.589844 C 216.011719 138.015625 202.34375 132.925781 187.5 132.925781 C 172.652344 132.925781 158.988281 138.0625 148.148438 146.589844 L 134.292969 146.589844 C 141.691406 138.671875 150.835938 132.40625 161.109375 128.398438 L 100.171875 128.398438 C 95.695312 128.398438 91.457031 130.191406 88.296875 133.347656 C 85.140625 136.507812 83.351562 140.792969 83.351562 145.222656 L 83.351562 146.589844 L 69.917969 146.589844 L 69.917969 145.222656 C 69.917969 137.210938 73.125 129.484375 78.777344 123.828125 C 83.066406 119.539062 88.488281 116.664062 94.328125 115.535156 L 94.328125 109.925781 L 112.664062 109.925781 Z M 277.320312 136.976562 C 277.320312 135.515625 276.144531 134.339844 274.683594 134.339844 C 270.769531 134.339844 263.464844 134.339844 259.554688 134.339844 C 258.09375 134.339844 256.914062 135.515625 256.914062 136.976562 C 256.914062 138.4375 258.09375 139.617188 259.554688 139.617188 C 263.464844 139.617188 270.769531 139.617188 274.683594 139.617188 C 276.144531 139.617188 277.320312 138.4375 277.320312 136.976562 Z M 277.320312 136.976562 " fill-opacity="1" fill-rule="evenodd"/></g><g fill="#ffffff" fill-opacity="1"><g transform="translate(149.242964, 193.907886)"><g><path d="M 1.71875 -30.078125 L 6.453125 -30.078125 L 6.453125 -4.296875 L 14.21875 -4.296875 L 14.21875 0 L 1.71875 0 Z M 1.71875 -30.078125 "/></g></g></g><g fill="#ffffff" fill-opacity="1"><g transform="translate(168.151567, 193.907886)"><g><path d="M 1.71875 -30.078125 L 6.453125 -30.078125 L 6.453125 0 L 1.71875 0 Z M 1.71875 -30.078125 "/></g></g></g><g fill="#ffffff" fill-opacity="1"><g transform="translate(180.657235, 193.907886)"><g><path d="M 11.734375 -8.71875 L 14.953125 -30.078125 L 21.53125 -30.078125 L 21.53125 0 L 17.0625 0 L 17.0625 -21.578125 L 13.796875 0 L 9.328125 0 L 5.796875 -21.265625 L 5.796875 0 L 1.671875 0 L 1.671875 -30.078125 L 8.25 -30.078125 Z M 11.734375 -8.71875 "/></g></g></g><g fill="#ffffff" fill-opacity="1"><g transform="translate(208.246329, 193.907886)"><g><path d="M 17.015625 0 L 12.25 0 L 11.4375 -5.453125 L 5.625 -5.453125 L 4.8125 0 L 0.46875 0 L 5.28125 -30.078125 L 12.203125 -30.078125 Z M 6.234375 -9.546875 L 10.78125 -9.546875 L 8.515625 -24.75 Z M 6.234375 -9.546875 "/></g></g></g><g fill="#ffffff" fill-opacity="1"><g transform="translate(123.531677, 227.814434)"><g><path d="M 3.21875 0 L 1.46875 0 L 1.46875 -12.9375 L 10.421875 -12.9375 L 10.421875 -11.390625 L 3.21875 -11.390625 L 3.21875 -7.4375 L 9.546875 -7.4375 L 9.546875 -5.875 L 3.21875 -5.875 Z M 3.21875 0 "/></g></g></g><g fill="#ffffff" fill-opacity="1"><g transform="translate(134.303497, 227.814434)"><g><path d="M 11.53125 -6.46875 C 11.53125 -7.988281 11.128906 -9.242188 10.328125 -10.234375 C 9.523438 -11.234375 8.421875 -11.734375 7.015625 -11.734375 C 5.628906 -11.734375 4.53125 -11.234375 3.71875 -10.234375 C 2.914062 -9.242188 2.515625 -7.988281 2.515625 -6.46875 C 2.515625 -4.90625 2.921875 -3.632812 3.734375 -2.65625 C 4.554688 -1.6875 5.648438 -1.203125 7.015625 -1.203125 C 8.347656 -1.203125 9.429688 -1.675781 10.265625 -2.625 C 11.109375 -3.582031 11.53125 -4.863281 11.53125 -6.46875 Z M 13.328125 -6.46875 C 13.328125 -4.539062 12.765625 -2.921875 11.640625 -1.609375 C 10.523438 -0.304688 8.984375 0.34375 7.015625 0.34375 C 5.035156 0.34375 3.488281 -0.304688 2.375 -1.609375 C 1.257812 -2.921875 0.703125 -4.539062 0.703125 -6.46875 C 0.703125 -8.40625 1.257812 -10.023438 2.375 -11.328125 C 3.488281 -12.628906 5.035156 -13.28125 7.015625 -13.28125 C 9.046875 -13.28125 10.601562 -12.617188 11.6875 -11.296875 C 12.78125 -9.972656 13.328125 -8.363281 13.328125 -6.46875 Z M 13.328125 -6.46875 "/></g></g></g><g fill="#ffffff" fill-opacity="1"><g transform="translate(148.322703, 227.814434)"><g><path d="M 4.578125 -11.390625 L 0.21875 -11.390625 L 0.21875 -12.9375 L 10.734375 -12.9375 L 10.734375 -11.390625 L 6.328125 -11.390625 L 6.328125 0 L 4.578125 0 Z M 4.578125 -11.390625 "/></g></g></g><g fill="#ffffff" fill-opacity="1"><g transform="translate(159.270532, 227.814434)"><g><path d="M 11.53125 -6.46875 C 11.53125 -7.988281 11.128906 -9.242188 10.328125 -10.234375 C 9.523438 -11.234375 8.421875 -11.734375 7.015625 -11.734375 C 5.628906 -11.734375 4.53125 -11.234375 3.71875 -10.234375 C 2.914062 -9.242188 2.515625 -7.988281 2.515625 -6.46875 C 2.515625 -4.90625 2.921875 -3.632812 3.734375 -2.65625 C 4.554688 -1.6875 5.648438 -1.203125 7.015625 -1.203125 C 8.347656 -1.203125 9.429688 -1.675781 10.265625 -2.625 C 11.109375 -3.582031 11.53125 -4.863281 11.53125 -6.46875 Z M 13.328125 -6.46875 C 13.328125 -4.539062 12.765625 -2.921875 11.640625 -1.609375 C 10.523438 -0.304688 8.984375 0.34375 7.015625 0.34375 C 5.035156 0.34375 3.488281 -0.304688 2.375 -1.609375 C 1.257812 -2.921875 0.703125 -4.539062 0.703125 -6.46875 C 0.703125 -8.40625 1.257812 -10.023438 2.375 -11.328125 C 3.488281 -12.628906 5.035156 -13.28125 7.015625 -13.28125 C 9.046875 -13.28125 10.601562 -12.617188 11.6875 -11.296875 C 12.78125 -9.972656 13.328125 -8.363281 13.328125 -6.46875 Z M 13.328125 -6.46875 "/></g></g></g><g fill="#ffffff" fill-opacity="1"><g transform="translate(173.289738, 227.814434)"><g><path d="M 6.9375 -6.921875 L 12.625 -6.921875 L 12.625 0 L 11.484375 0 L 11.0625 -1.671875 C 10.507812 -0.960938 9.859375 -0.445312 9.109375 -0.125 C 8.367188 0.1875 7.597656 0.34375 6.796875 0.34375 C 5.492188 0.34375 4.40625 0.0625 3.53125 -0.5 C 2.664062 -1.070312 1.992188 -1.851562 1.515625 -2.84375 C 1.035156 -3.84375 0.796875 -5.085938 0.796875 -6.578125 C 0.796875 -8.441406 1.347656 -10.023438 2.453125 -11.328125 C 3.554688 -12.628906 5.046875 -13.28125 6.921875 -13.28125 C 8.316406 -13.28125 9.535156 -12.890625 10.578125 -12.109375 C 11.628906 -11.328125 12.238281 -10.296875 12.40625 -9.015625 L 10.71875 -9.015625 C 10.507812 -9.867188 10.070312 -10.535156 9.40625 -11.015625 C 8.75 -11.492188 7.890625 -11.734375 6.828125 -11.734375 C 5.554688 -11.734375 4.53125 -11.253906 3.75 -10.296875 C 2.976562 -9.335938 2.59375 -8.066406 2.59375 -6.484375 C 2.59375 -4.648438 2.976562 -3.300781 3.75 -2.4375 C 4.519531 -1.582031 5.570312 -1.15625 6.90625 -1.15625 C 7.769531 -1.15625 8.503906 -1.328125 9.109375 -1.671875 C 9.710938 -2.015625 10.175781 -2.476562 10.5 -3.0625 C 10.820312 -3.65625 10.984375 -4.441406 10.984375 -5.421875 L 6.9375 -5.421875 Z M 6.9375 -6.921875 "/></g></g></g><g fill="#ffffff" fill-opacity="1"><g transform="translate(187.185737, 227.814434)"><g><path d="M 3.21875 -7.046875 L 7.265625 -7.046875 C 8.203125 -7.046875 8.875 -7.238281 9.28125 -7.625 C 9.6875 -8.007812 9.890625 -8.5625 9.890625 -9.28125 C 9.890625 -9.945312 9.710938 -10.472656 9.359375 -10.859375 C 9.015625 -11.253906 8.410156 -11.453125 7.546875 -11.453125 L 3.21875 -11.453125 Z M 3.21875 0 L 1.46875 0 L 1.46875 -12.9375 L 7.453125 -12.9375 C 8.835938 -12.9375 9.890625 -12.640625 10.609375 -12.046875 C 11.328125 -11.453125 11.6875 -10.59375 11.6875 -9.46875 C 11.6875 -8.71875 11.539062 -8.09375 11.25 -7.59375 C 10.96875 -7.09375 10.515625 -6.679688 9.890625 -6.359375 C 10.421875 -6.171875 10.800781 -5.898438 11.03125 -5.546875 C 11.269531 -5.203125 11.410156 -4.660156 11.453125 -3.921875 L 11.5625 -1.515625 C 11.570312 -1.117188 11.632812 -0.835938 11.75 -0.671875 C 11.863281 -0.515625 12.023438 -0.390625 12.234375 -0.296875 L 12.234375 0 L 10.0625 0 C 9.945312 -0.320312 9.863281 -0.8125 9.8125 -1.46875 C 9.769531 -2.125 9.75 -2.71875 9.75 -3.25 C 9.75 -3.507812 9.722656 -3.773438 9.671875 -4.046875 C 9.628906 -4.328125 9.53125 -4.578125 9.375 -4.796875 C 9.21875 -5.023438 8.984375 -5.207031 8.671875 -5.34375 C 8.367188 -5.488281 7.960938 -5.5625 7.453125 -5.5625 L 3.21875 -5.5625 Z M 3.21875 0 "/></g></g></g><g fill="#ffffff" fill-opacity="1"><g transform="translate(200.052077, 227.814434)"><g><path d="M 7.9375 -5.3125 L 6.015625 -11.015625 L 5.984375 -11.015625 L 3.90625 -5.3125 Z M 3.375 -3.765625 L 2.015625 0 L 0.21875 0 L 5.09375 -12.9375 L 7.0625 -12.9375 L 11.75 0 L 9.84375 0 L 8.5625 -3.765625 Z M 3.375 -3.765625 "/></g></g></g><g fill="#ffffff" fill-opacity="1"><g transform="translate(212.073568, 227.814434)"><g><path d="M 3.21875 0 L 1.46875 0 L 1.46875 -12.9375 L 10.421875 -12.9375 L 10.421875 -11.390625 L 3.21875 -11.390625 L 3.21875 -7.4375 L 9.546875 -7.4375 L 9.546875 -5.875 L 3.21875 -5.875 Z M 3.21875 0 "/></g></g></g><g fill="#ffffff" fill-opacity="1"><g transform="translate(222.845388, 227.814434)"><g><path d="M 3.21875 0 L 1.46875 0 L 1.46875 -12.9375 L 3.21875 -12.9375 Z M 3.21875 0 "/></g></g></g><g fill="#ffffff" fill-opacity="1"><g transform="translate(227.492055, 227.814434)"><g><path d="M 7.9375 -5.3125 L 6.015625 -11.015625 L 5.984375 -11.015625 L 3.90625 -5.3125 Z M 3.375 -3.765625 L 2.015625 0 L 0.21875 0 L 5.09375 -12.9375 L 7.0625 -12.9375 L 11.75 0 L 9.84375 0 L 8.5625 -3.765625 Z M 3.375 -3.765625 "/></g></g></g><g fill="#ffffff" fill-opacity="1"><g transform="translate(239.513546, 227.814434)"><g><path d="M 9.09375 -9.15625 C 9.050781 -9.976562 8.738281 -10.617188 8.15625 -11.078125 C 7.582031 -11.546875 6.820312 -11.78125 5.875 -11.78125 C 4.925781 -11.78125 4.195312 -11.585938 3.6875 -11.203125 C 3.175781 -10.816406 2.921875 -10.253906 2.921875 -9.515625 C 2.921875 -9.117188 3.03125 -8.78125 3.25 -8.5 C 3.476562 -8.21875 3.878906 -8.007812 4.453125 -7.875 L 8.15625 -7.03125 C 9.15625 -6.8125 9.894531 -6.398438 10.375 -5.796875 C 10.851562 -5.191406 11.09375 -4.453125 11.09375 -3.578125 C 11.09375 -2.296875 10.625 -1.320312 9.6875 -0.65625 C 8.75 0.0078125 7.523438 0.34375 6.015625 0.34375 C 4.878906 0.34375 3.976562 0.195312 3.3125 -0.09375 C 2.65625 -0.382812 2.070312 -0.847656 1.5625 -1.484375 C 1.050781 -2.128906 0.796875 -3.03125 0.796875 -4.1875 L 2.4375 -4.1875 C 2.4375 -3.21875 2.753906 -2.46875 3.390625 -1.9375 C 4.023438 -1.414062 4.894531 -1.15625 6 -1.15625 C 7.070312 -1.15625 7.90625 -1.34375 8.5 -1.71875 C 9.09375 -2.101562 9.390625 -2.644531 9.390625 -3.34375 C 9.390625 -3.96875 9.210938 -4.4375 8.859375 -4.75 C 8.503906 -5.070312 7.8125 -5.351562 6.78125 -5.59375 L 3.984375 -6.25 C 3.054688 -6.457031 2.363281 -6.820312 1.90625 -7.34375 C 1.445312 -7.875 1.21875 -8.519531 1.21875 -9.28125 C 1.21875 -10.445312 1.609375 -11.40625 2.390625 -12.15625 C 3.179688 -12.90625 4.273438 -13.28125 5.671875 -13.28125 C 7.265625 -13.28125 8.488281 -12.953125 9.34375 -12.296875 C 10.207031 -11.640625 10.671875 -10.59375 10.734375 -9.15625 Z M 9.09375 -9.15625 "/></g></g></g><g fill="#ffffff" fill-opacity="1"><g transform="translate(251.453548, 227.814434)"><g/></g></g><path stroke-linecap="butt" transform="matrix(0.882616, 0, 0, 0.882616, 72.566484, 217.792543)" fill="none" stroke-linejoin="miter" d="M -0.0000877899 2.000926 L 42.956353 2.000926 " stroke="#ffffff" stroke-width="4" stroke-opacity="1" stroke-miterlimit="4"/><path stroke-linecap="butt" transform="matrix(0.882616, 0, 0, 0.882616, 264.518805, 217.792543)" fill="none" stroke-linejoin="miter" d="M 0.000823144 2.000926 L 42.957264 2.000926 " stroke="#ffffff" stroke-width="4" stroke-opacity="1" stroke-miterlimit="4"/></svg>