<?xml version="1.0"?>
<svg width="375" height="374.999991" xmlns="http://www.w3.org/2000/svg" xmlns:svg="http://www.w3.org/2000/svg" preserveAspectRatio="xMidYMid meet" version="1.0">
 <defs>
  <g id="svg_1"/>
  <clipPath id="59c163a58e">
   <path clip-rule="nonzero" d="m110.32,207.12l243.64,0l0,21.86l-243.64,0l0,-21.86zm0,0" id="svg_2"/>
  </clipPath>
 </defs>
 <g class="layer">
  <title>Layer 1</title>
  <g fill="#737373" id="svg_3">
   <g id="svg_4" transform="translate(70.441406, 240.742521)">
    <g id="svg_5">
     <path d="m32.46,-12.98l0,-142.2l-14.93,0l0,155.18l70.99,0l0,-12.98l-56.06,0zm0,0" fill="#ffffff" id="svg_6"/>
    </g>
   </g>
  </g>
  <g fill="#737373" id="svg_7">
   <g id="svg_8" transform="translate(94.957016, 278.181807)">
    <g id="svg_9">
     <path d="m85.06,0l15.37,0l-40.91,-155.18l-12.98,0l-40.91,155.18l14.93,0l9.09,-36.79l46.32,0l9.09,36.79zm-52.16,-49.78l12.98,-53.02c2.82,-10.61 4.98,-23.16 6.93,-35.29c2.16,12.13 4.11,24.68 6.92,35.29l12.99,53.02l-39.82,0zm0,0" fill="#ffffff" id="svg_10"/>
    </g>
   </g>
  </g>
  <path d="m0,0.5l35.46,0" fill="none" id="svg_13" stroke="#000000" stroke-miterlimit="4" transform="matrix(0.75, 0, 0, 0.75, 187.196536, 231.560903)"/>
  <g fill="#737373" id="svg_14">
   <g id="svg_15" transform="translate(214.146202, 236.812852)">
    <g id="svg_16">
     <path d="m13.2,-2.51c-0.03,0 -0.06,0 -0.09,0.03c-1.04,0.89 -4.13,3.06 -6.01,3.06c-0.92,0 -1.56,-1.1 -2.16,-2.2l-0.38,-0.63c4.3,-0.06 8,-3.18 8,-5.75c0,-1.24 -0.81,-1.88 -2.42,-1.88c-3.04,0 -7.05,2.06 -8.75,4.51c-0.03,0.03 -0.03,0.06 -0.03,0.08c0,0.09 0.05,0.18 0.14,0.18c0.06,0 0.12,-0.03 0.14,-0.09c1.68,-2.34 5.55,-4.33 8.5,-4.33c1.44,0 2.1,0.49 2.1,1.53c0,2.43 -3.55,5.4 -7.79,5.4l-0.12,0c-0.12,-0.17 -0.23,-0.32 -0.35,-0.43c1.22,-1.51 2.6,-2.98 3.79,-3.99c0.03,-0.03 0.05,-0.05 0.05,-0.11c0,-0.09 -0.08,-0.17 -0.17,-0.17c-0.03,0 -0.06,0.02 -0.08,0.05c-1.22,1.01 -2.61,2.48 -3.82,3.99c-0.2,-0.18 -0.43,-0.26 -0.69,-0.26c-0.23,0 -0.4,0.14 -0.4,0.37c0,0.2 0.2,0.44 0.52,0.61c-1.39,1.73 -2.46,3.41 -2.57,4.18c-0.03,0.15 -0.06,0.24 -0.06,0.29l0.03,0.12c0.06,0.09 0.14,0.11 0.23,0.09c0.14,-0.03 0.23,-0.32 0.29,-0.58c0,-0.11 -0.03,-0.17 -0.09,-0.17c0.32,-0.84 1.27,-2.28 2.48,-3.82c0.21,0.09 0.44,0.15 0.67,0.15c0.17,0.26 0.32,0.55 0.49,0.83c0.6,1.1 1.33,2.38 2.45,2.38c1.99,0 5.17,-2.26 6.21,-3.15c0.03,-0.03 0.06,-0.09 0.06,-0.15c0,-0.08 -0.06,-0.14 -0.17,-0.14zm-9.82,-0.32c-0.23,-0.09 -0.41,-0.23 -0.41,-0.32c0,-0.03 0.03,-0.06 0.09,-0.06c0.17,0 0.32,0.09 0.49,0.18c-0.06,0.08 -0.11,0.14 -0.17,0.2zm0.32,0.12l0.08,-0.09c0.03,0.06 0.09,0.09 0.12,0.14c-0.06,0 -0.12,-0.02 -0.2,-0.05zm0,0" id="svg_17"/>
    </g>
   </g>
  </g>
  <g fill="#737373" id="svg_18">
   <g id="svg_19" transform="translate(226.706847, 236.812852)">
    <g id="svg_20">
     <path d="m0.95,0.09c0.9,0 3.7,-0.81 5.72,-2.31c0.06,-0.03 0.09,-0.09 0.09,-0.15c0,-0.08 -0.09,-0.14 -0.18,-0.14c-0.03,0 -0.05,0 -0.08,0.03c-2,1.44 -4.71,2.22 -5.55,2.22c-0.66,0 -1.01,-0.17 -1.01,-0.55c0,-0.37 0.29,-0.83 0.67,-1.24c0.17,0.09 0.4,0.12 0.72,0.12c0.52,0 1.18,-0.44 1.18,-0.81c0,-0.29 -0.2,-0.47 -0.52,-0.47c-0.95,0 -2.39,1.45 -2.39,2.4c0,0.58 0.52,0.9 1.35,0.9zm0.38,-2.34c-0.2,0 -0.35,-0.03 -0.46,-0.06c0.37,-0.32 0.77,-0.55 1.12,-0.55c0.15,0 0.21,0.03 0.21,0.12c0,0.17 -0.56,0.49 -0.87,0.49zm0,0" id="svg_21"/>
    </g>
   </g>
  </g>
  <g fill="#737373" id="svg_22">
   <g id="svg_23" transform="translate(232.626235, 236.812852)">
    <g id="svg_24">
     <path d="m-11.03,11.81c1.1,0 2.89,-1.3 5.49,-3.93c1.5,-1.53 2.77,-2.83 3.81,-3.95c1.15,-0.78 2.45,-1.62 3.84,-2.52c2.6,-1.64 4.71,-3.03 5.4,-3.57c0.06,-0.04 0.06,-0.09 0.06,-0.15c0,-0.09 -0.06,-0.14 -0.15,-0.14c-0.06,0 -0.08,0 -0.12,0.02c-0.69,0.55 -2.8,1.91 -5.37,3.56l-2.77,1.82c1.82,-2.02 2.86,-3.35 3.58,-4.28c0.72,-0.95 0.9,-1.21 0.9,-1.5c0,-0.29 -0.32,-0.43 -0.72,-0.43c-1.53,0 -4.42,1.79 -4.42,2.74c0,0.32 0.17,0.49 0.49,0.49c0.46,0 1.47,-0.49 3.17,-1.53c0.47,-0.29 0.5,-0.23 0.32,0.03c-0.84,1.04 -2.08,2.66 -4.44,5.2c-6.99,4.56 -9.76,6.67 -9.76,7.47c0,0.41 0.29,0.67 0.69,0.67zm10.02,-12.16c-0.12,0 -0.15,-0.05 -0.15,-0.17c0,-0.72 2.78,-2.4 4.08,-2.4c0.23,0 0.37,0.06 0.37,0.09c0,0.06 0,0.09 -0.03,0.15l-0.08,0.08c-0.23,0.15 -0.61,0.4 -1.19,0.75c-1.64,0.98 -2.65,1.5 -3,1.5zm-10.02,11.81c-0.23,0 -0.38,-0.11 -0.38,-0.32c0,-0.57 2.55,-2.53 8.49,-6.46c-0.83,0.89 -1.79,1.87 -2.85,2.97c-2.55,2.54 -4.31,3.81 -5.26,3.81zm0,0" id="svg_25"/>
    </g>
   </g>
  </g>
  <g fill="#737373" id="svg_26">
   <g id="svg_27" transform="translate(239.440745, 236.812852)">
    <g id="svg_28">
     <path d="m2.08,-3.73c0.06,0 0.08,0 0.12,-0.05l0.11,-0.12c0.09,-0.14 0.2,-0.29 0.26,-0.35c0.03,-0.02 0.03,-0.08 0.03,-0.11c0,-0.09 -0.06,-0.18 -0.15,-0.18c-0.05,0 -0.11,0.04 -0.14,0.06c-0.06,0.09 -0.17,0.27 -0.26,0.38l-0.12,0.12c-0.02,0.02 -0.02,0.05 -0.02,0.11c0,0.09 0.08,0.14 0.17,0.14zm-1.85,3.9c0.98,0 4.02,-1.41 5.57,-2.39c0.03,-0.03 0.06,-0.09 0.06,-0.15c0,-0.08 -0.06,-0.14 -0.17,-0.14l-0.09,0c-1.5,0.98 -4.47,2.34 -5.37,2.34c-0.32,0 -0.46,-0.12 -0.46,-0.41c0,-0.4 0.69,-1.38 1.68,-2.39c0.02,-0.03 0.05,-0.06 0.05,-0.12c0,-0.09 -0.09,-0.14 -0.17,-0.14c-0.06,0 -0.09,0 -0.12,0.02c-1.07,1.1 -1.76,2.08 -1.76,2.63c0,0.46 0.29,0.75 0.78,0.75zm0,0" id="svg_29"/>
    </g>
   </g>
  </g>
  <g fill="#737373" id="svg_30">
   <g id="svg_31" transform="translate(244.493883, 236.812852)">
    <g id="svg_32">
     <path d="m-0.12,1.39c0.96,0 2.2,-1.01 2.78,-1.85l0.08,-0.06c0.75,-0.23 1.68,-0.52 2.66,-0.81c0.98,-0.29 2.02,-0.58 2.89,-0.87c0.09,-0.02 0.11,-0.08 0.11,-0.17c0,-0.08 -0.06,-0.14 -0.14,-0.14l-0.06,0c-0.86,0.29 -1.91,0.58 -2.89,0.87c-0.81,0.23 -1.61,0.48 -2.31,0.69c-0.03,0.02 -0.05,0 -0.05,-0.06c0.02,-0.06 0.02,-0.12 0.05,-0.15c0,-0.29 -0.2,-0.4 -0.55,-0.4c-0.23,0 -0.52,0.06 -0.83,0.11c-0.32,0.06 -0.67,0.12 -0.93,0.12c-0.26,0 -0.34,-0.06 -0.34,-0.14c0,-0.67 1.5,-1.82 2.36,-1.82c0.15,0 0.18,0.06 0.18,0.14c0,0.2 -0.26,0.52 -0.46,0.64c-0.06,0.03 -0.09,0.08 -0.09,0.14c0,0.12 0.09,0.17 0.17,0.17c0.03,0 0.06,0 0.09,-0.02c0.26,-0.15 0.52,-0.49 0.61,-0.84c0.02,-0.03 0.02,-0.09 0.02,-0.12c0,-0.26 -0.2,-0.43 -0.52,-0.43c-1.03,0 -2.71,1.3 -2.71,2.14c0,0.31 0.26,0.46 0.69,0.46c0.29,0 0.64,-0.06 0.99,-0.12c0.23,-0.03 0.95,-0.14 0.98,-0.05c0.05,0.08 -0.06,0.23 -0.15,0.37c0,0.03 -0.03,0.03 -0.06,0.03c-1.15,0.43 -3.06,1.24 -3.06,1.79c0,0.26 0.18,0.38 0.49,0.38zm0,-0.35c-0.14,0 -0.17,0 -0.17,-0.06c0,-0.14 1.01,-0.72 2.22,-1.21c0.09,0 0.12,0.03 0.06,0.09c-0.58,0.6 -1.44,1.18 -2.11,1.18zm0,0" id="svg_33"/>
    </g>
   </g>
  </g>
  <g fill="#737373" id="svg_34">
   <g id="svg_35" transform="translate(252.088022, 236.812852)">
    <g id="svg_36">
     <path d="m-6.09,7.34c0.14,0 0.32,-0.24 0.46,-0.47c0.06,-0.08 0.06,-0.17 0,-0.2c2.74,-4.3 6.24,-8.81 9.82,-12.99c2.51,-0.12 5.08,-0.12 7.53,-0.03c0.12,0 0.18,-0.06 0.18,-0.15c0,-0.08 -0.06,-0.17 -0.15,-0.17c-2.39,-0.09 -4.85,-0.09 -7.25,0c1.56,-1.82 3.12,-3.58 4.68,-5.26c0.03,-0.02 0.03,-0.08 0.03,-0.11c0,-0.09 -0.06,-0.17 -0.17,-0.17c-0.03,0 -0.09,0.03 -0.12,0.05c-1.62,1.77 -3.26,3.61 -4.88,5.52c-2.59,0.09 -5.11,0.29 -7.36,0.58c-0.09,0.02 -0.14,0.08 -0.14,0.17c0,0.09 0.08,0.17 0.17,0.17l0.03,0c2.13,-0.29 4.53,-0.49 7.01,-0.6c-3.63,4.27 -7.13,8.8 -9.9,13.16c-0.03,0.06 -0.06,0.12 -0.09,0.18l-0.03,0.03c-0.05,0.17 -0.02,0.29 0.18,0.29zm0,0" id="svg_37"/>
    </g>
   </g>
  </g>
  <g fill="#737373" id="svg_38">
   <g id="svg_39" transform="translate(256.390405, 236.812852)">
    <g id="svg_40">
     <path d="m0.38,3.12c1.73,0 6.75,-3.26 9.64,-5.34c0.03,-0.03 0.06,-0.09 0.06,-0.15c0,-0.08 -0.06,-0.14 -0.18,-0.14c-0.02,0 -0.05,0 -0.08,0.03c-2.86,2.08 -7.8,5.25 -9.44,5.25c-0.35,0 -0.47,-0.11 -0.47,-0.4c0,-0.84 1.48,-2.28 2.89,-3.67c1.24,-1.24 2.49,-2.45 2.49,-3.15c0,-0.34 -0.41,-0.57 -0.9,-1.03c1.09,-1.19 1.9,-2.26 1.9,-2.66c0,-0.2 -0.11,-0.35 -0.31,-0.35c-0.9,0 -2.92,1.53 -2.92,2.25c0,0.26 0.29,0.47 0.81,0.81c-0.95,1.01 -2.17,2.11 -3.32,2.95c-0.03,0.03 -0.06,0.08 -0.06,0.11c0,0.12 0.06,0.17 0.15,0.17c0.05,0 0.08,0 0.11,-0.02c1.04,-0.75 2.34,-1.91 3.41,-3.03c0.57,0.4 0.78,0.6 0.78,0.8c0,0.55 -1.13,1.68 -2.37,2.89c-1.41,1.42 -2.97,2.95 -2.97,3.93c0,0.46 0.23,0.75 0.78,0.75zm3.72,-8.78c-0.52,-0.35 -0.69,-0.52 -0.69,-0.58c0,-0.49 1.64,-1.73 2.42,-1.87c0.09,-0.03 0.15,0.02 0.12,0.11c-0.2,0.49 -1.24,1.71 -1.85,2.34zm0,0" id="svg_41"/>
    </g>
   </g>
  </g>
  <g fill="#737373" id="svg_42">
   <g id="svg_43" transform="translate(265.659294, 236.812852)">
    <g id="svg_44">
     <path d="m3.9,0.03c1.01,0 3.67,-1.1 5.28,-2.25c0.03,-0.03 0.06,-0.09 0.06,-0.15c0,-0.08 -0.06,-0.14 -0.15,-0.14c-0.05,0 -0.08,0 -0.11,0.03c-1.62,1.21 -4.19,2.16 -5.08,2.16c-0.49,0 -0.72,-0.14 -0.72,-0.52c0,-0.55 0.46,-1.24 0.8,-1.73c0.21,-0.29 0.32,-0.46 0.32,-0.58c0,-0.11 -0.09,-0.2 -0.2,-0.2c-0.14,0 -0.49,0.23 -1.1,0.69c-0.17,-0.31 -0.37,-0.43 -0.8,-0.43c-0.99,0 -3.59,1.62 -3.59,2.6c0,0.29 0.21,0.46 0.52,0.46c0.81,0 2.6,-1.33 3.82,-2.19c0.23,-0.18 0.43,-0.32 0.57,-0.41c0.06,-0.05 0.15,-0.03 0.06,0.06c-0.35,0.52 -0.72,1.16 -0.72,1.73c0,0.58 0.35,0.87 1.04,0.87zm-4.77,-0.41c-0.14,0 -0.2,-0.02 -0.2,-0.11c0,-0.69 2.28,-2.28 3.27,-2.28c0.31,0 0.4,0.06 0.51,0.29c-1.18,0.89 -2.88,2.1 -3.58,2.1zm0,0" id="svg_45"/>
    </g>
   </g>
  </g>
  <g fill="#737373" id="svg_46">
   <g id="svg_47" transform="translate(274.090809, 236.812852)">
    <g id="svg_48">
     <path d="m2.92,0.03c1.09,0 3.66,-0.9 5.63,-2.25c0.06,-0.03 0.08,-0.09 0.08,-0.15c0,-0.08 -0.06,-0.17 -0.17,-0.17c-0.03,0 -0.06,0.03 -0.08,0.03c-1.91,1.33 -4.42,2.19 -5.46,2.19c-0.49,0 -0.72,-0.14 -0.72,-0.52c0,-0.26 0.28,-0.78 0.72,-1.5c0,0 0,0 0,0.03c0,0.09 0.08,0.17 0.17,0.17c0.09,0 0.14,-0.06 0.17,-0.14c0,-0.17 -0.03,-0.32 -0.08,-0.43l0.55,-0.81c4.3,-3.99 10.22,-10.17 10.22,-10.92c0,-0.23 -0.15,-0.37 -0.41,-0.37c-1.04,0 -6.99,6.78 -9.96,10.97c-0.29,0.26 -0.55,0.49 -0.81,0.75c-0.11,-0.09 -0.29,-0.12 -0.46,-0.12c-1.3,0 -3.32,1.71 -3.32,2.78c0,0.26 0.17,0.4 0.37,0.4c0.5,0 1.57,-0.92 3.07,-2.31c0.11,-0.09 0.17,-0.03 0.08,0.09c-0.4,0.66 -0.63,1.15 -0.63,1.41c0,0.58 0.37,0.87 1.04,0.87zm1.96,-5.11c3.12,-4.07 7.88,-9.42 8.66,-9.42c0.09,0 0.09,0.04 0.09,0.06c0,0.55 -4.74,5.49 -8.75,9.36zm-5.46,4.7c-0.03,0 -0.08,0 -0.08,-0.08c0,-0.87 1.87,-2.4 2.97,-2.4l0.2,0c-1.62,1.5 -2.8,2.48 -3.09,2.48zm0,0" id="svg_49"/>
    </g>
   </g>
  </g>
  <g fill="#737373" id="svg_50">
   <g id="svg_51" transform="translate(281.915946, 236.812852)">
    <g id="svg_52">
     <path d="m-0.17,0.23c0.92,0 1.81,-1.56 1.64,-2.68c0,-0.06 0.03,-0.12 0.09,-0.06c1.67,1.04 3.9,1.15 5.4,0.29c0.06,-0.03 0.11,-0.09 0.11,-0.15c0,-0.08 -0.08,-0.14 -0.17,-0.14l-0.08,0c-1.39,0.81 -3.41,0.69 -4.97,-0.23c-0.06,-0.03 -0.06,-0.06 0,-0.09c0.03,-0.03 0.08,-0.03 0.11,-0.06c0.09,0 0.12,-0.06 0.12,-0.14c0,-0.09 -0.06,-0.18 -0.15,-0.18c-0.02,0 -0.05,0 -0.05,0.03c-0.15,0.03 -0.29,0.09 -0.41,0.15c-0.06,0.03 -0.06,0.03 -0.11,0c-0.12,-0.03 -0.23,0.06 -0.29,0.17c0,0.03 -0.03,0.03 -0.03,0.06c-1.01,0.6 -1.76,1.56 -1.76,2.37c0,0.4 0.2,0.66 0.55,0.66zm0,-0.32c-0.15,0 -0.23,-0.11 -0.23,-0.34c0,-0.67 0.66,-1.5 1.56,-2.05c0.14,0.92 -0.64,2.39 -1.33,2.39zm0,0" id="svg_53"/>
    </g>
   </g>
  </g>
  <g fill="#737373" id="svg_54">
   <g id="svg_55" transform="translate(228.489951, 276.562849)">
    <g id="svg_56">
     <path d="m-0.12,1.39c0.96,0 2.2,-1.01 2.78,-1.85l0.08,-0.06c0.75,-0.23 1.68,-0.52 2.66,-0.81c0.98,-0.29 2.02,-0.58 2.89,-0.87c0.09,-0.02 0.11,-0.08 0.11,-0.17c0,-0.08 -0.06,-0.14 -0.14,-0.14l-0.06,0c-0.86,0.29 -1.91,0.58 -2.89,0.87c-0.81,0.23 -1.61,0.48 -2.31,0.69c-0.03,0.02 -0.05,0 -0.05,-0.06c0.02,-0.06 0.02,-0.12 0.05,-0.15c0,-0.29 -0.2,-0.4 -0.55,-0.4c-0.23,0 -0.52,0.06 -0.83,0.11c-0.32,0.06 -0.67,0.12 -0.93,0.12c-0.26,0 -0.34,-0.06 -0.34,-0.14c0,-0.67 1.5,-1.82 2.36,-1.82c0.15,0 0.18,0.06 0.18,0.14c0,0.2 -0.26,0.52 -0.46,0.64c-0.06,0.03 -0.09,0.08 -0.09,0.14c0,0.12 0.09,0.17 0.17,0.17c0.03,0 0.06,0 0.09,-0.02c0.26,-0.15 0.52,-0.49 0.61,-0.84c0.02,-0.03 0.02,-0.09 0.02,-0.12c0,-0.26 -0.2,-0.43 -0.52,-0.43c-1.03,0 -2.71,1.3 -2.71,2.14c0,0.31 0.26,0.46 0.69,0.46c0.29,0 0.64,-0.06 0.99,-0.12c0.23,-0.03 0.95,-0.14 0.98,-0.05c0.05,0.08 -0.06,0.23 -0.15,0.37c0,0.03 -0.03,0.03 -0.06,0.03c-1.15,0.43 -3.06,1.24 -3.06,1.79c0,0.26 0.18,0.38 0.49,0.38zm0,-0.35c-0.14,0 -0.17,0 -0.17,-0.06c0,-0.14 1.01,-0.72 2.22,-1.21c0.09,0 0.12,0.03 0.06,0.09c-0.58,0.6 -1.44,1.18 -2.11,1.18zm0,0" id="svg_57"/>
    </g>
   </g>
  </g>
  <g fill="#737373" id="svg_58">
   <g id="svg_59" transform="translate(236.08409, 276.562849)">
    <g id="svg_60">
     <path d="m-0.17,0.23c0.92,0 1.81,-1.56 1.64,-2.68c0,-0.06 0.03,-0.12 0.09,-0.06c1.67,1.04 3.9,1.15 5.4,0.29c0.06,-0.03 0.11,-0.09 0.11,-0.15c0,-0.08 -0.08,-0.14 -0.17,-0.14l-0.08,0c-1.39,0.81 -3.41,0.69 -4.97,-0.23c-0.06,-0.03 -0.06,-0.06 0,-0.09c0.03,-0.03 0.08,-0.03 0.11,-0.06c0.09,0 0.12,-0.06 0.12,-0.14c0,-0.09 -0.06,-0.18 -0.15,-0.18c-0.02,0 -0.05,0 -0.05,0.03c-0.15,0.03 -0.29,0.09 -0.41,0.15c-0.06,0.03 -0.06,0.03 -0.11,0c-0.12,-0.03 -0.23,0.06 -0.29,0.17c0,0.03 -0.03,0.03 -0.03,0.06c-1.01,0.6 -1.76,1.56 -1.76,2.37c0,0.4 0.2,0.66 0.55,0.66zm0,-0.32c-0.15,0 -0.23,-0.11 -0.23,-0.34c0,-0.67 0.66,-1.5 1.56,-2.05c0.14,0.92 -0.64,2.39 -1.33,2.39zm0,0" id="svg_61"/>
    </g>
   </g>
  </g>
  <g fill="#737373" id="svg_62">
   <g id="svg_63" transform="translate(242.321096, 276.562849)">
    <g id="svg_64">
     <path d="m-0.81,0c0.12,0 0.38,-0.23 0.72,-0.46c1.13,-0.81 3.41,-2.49 4.34,-2.49c0.11,0 0.14,0.09 0.14,0.15c0,0.14 -0.12,0.6 -0.23,1.01c-0.09,0.38 -0.18,0.75 -0.18,0.92c0,0.35 0.27,0.55 0.67,0.55c1.04,0 2.86,-0.75 4.62,-1.9c0.06,-0.03 0.09,-0.09 0.09,-0.15c0,-0.08 -0.09,-0.14 -0.18,-0.14l-0.09,0c-1.73,1.15 -3.49,1.87 -4.44,1.87c-0.23,0 -0.32,-0.08 -0.32,-0.23c0,-0.14 0.06,-0.46 0.17,-0.83c0.09,-0.44 0.21,-0.9 0.21,-1.16c0,-0.26 -0.17,-0.4 -0.46,-0.4c-0.76,0 -2.11,0.78 -4.39,2.42c-0.15,0.09 -0.18,-0.03 -0.12,-0.11c0.64,-0.9 1.88,-2.34 3.03,-3.21c0.03,-0.03 0.06,-0.09 0.06,-0.14c0,-0.09 -0.06,-0.15 -0.15,-0.15c-0.05,0 -0.08,0 -0.11,0.03c-1.68,1.27 -3.52,3.73 -3.61,4.1c-0.03,0.18 0.06,0.32 0.23,0.32zm0,0" id="svg_65"/>
    </g>
   </g>
  </g>
  <g fill="#737373" id="svg_66">
   <g id="svg_67" transform="translate(250.839231, 276.562849)">
    <g id="svg_68">
     <path d="m-1.76,1.73c0.12,0 0.46,-0.34 0.89,-0.8c0.38,-0.35 0.87,-0.81 1.36,-1.31c1.59,-1.5 2.72,-2.3 3.18,-2.3c0.06,0 0.08,0.02 0.08,0.11c0,0.2 -0.14,0.52 -0.26,0.84c-0.14,0.34 -0.28,0.72 -0.28,1.04c0,0.52 0.34,0.83 0.95,0.83c1.36,0 4.22,-1.38 5.72,-2.36c0.05,-0.03 0.08,-0.09 0.08,-0.15c0,-0.08 -0.08,-0.14 -0.17,-0.14l-0.09,0c-1.5,0.98 -4.27,2.31 -5.54,2.31c-0.43,0 -0.64,-0.15 -0.64,-0.49c0,-0.24 0.15,-0.55 0.26,-0.9c0.15,-0.34 0.29,-0.69 0.29,-0.98c0,-0.29 -0.14,-0.43 -0.4,-0.43c-0.61,0 -1.74,0.8 -3.41,2.39c-0.49,0.47 -0.98,0.93 -1.36,1.3c-0.29,0.32 -0.43,0.35 -0.2,-0.05c0.43,-0.7 1.16,-1.71 2.08,-2.89c6.18,-3.9 11.98,-10.48 11.98,-11.93c0,-0.32 -0.17,-0.49 -0.49,-0.49c-1.59,0 -14.26,14.38 -14.26,16.17c0,0.14 0.08,0.23 0.23,0.23zm3.21,-4.79c3.8,-4.71 9.9,-11.26 10.82,-11.26c0.15,0 0.18,0.03 0.18,0.14c0,1.27 -5.2,7.19 -11,11.12zm0,0" id="svg_69"/>
    </g>
   </g>
  </g>
  <g fill="#737373" id="svg_70">
   <g id="svg_71" transform="translate(259.963742, 276.562849)">
    <g id="svg_72">
     <path d="m-0.17,0.23c0.92,0 1.81,-1.56 1.64,-2.68c0,-0.06 0.03,-0.12 0.09,-0.06c1.67,1.04 3.9,1.15 5.4,0.29c0.06,-0.03 0.11,-0.09 0.11,-0.15c0,-0.08 -0.08,-0.14 -0.17,-0.14l-0.08,0c-1.39,0.81 -3.41,0.69 -4.97,-0.23c-0.06,-0.03 -0.06,-0.06 0,-0.09c0.03,-0.03 0.08,-0.03 0.11,-0.06c0.09,0 0.12,-0.06 0.12,-0.14c0,-0.09 -0.06,-0.18 -0.15,-0.18c-0.02,0 -0.05,0 -0.05,0.03c-0.15,0.03 -0.29,0.09 -0.41,0.15c-0.06,0.03 -0.06,0.03 -0.11,0c-0.12,-0.03 -0.23,0.06 -0.29,0.17c0,0.03 -0.03,0.03 -0.03,0.06c-1.01,0.6 -1.76,1.56 -1.76,2.37c0,0.4 0.2,0.66 0.55,0.66zm0,-0.32c-0.15,0 -0.23,-0.11 -0.23,-0.34c0,-0.67 0.66,-1.5 1.56,-2.05c0.14,0.92 -0.64,2.39 -1.33,2.39zm0,0" id="svg_73"/>
    </g>
   </g>
  </g>
  <g fill="#737373" id="svg_74">
   <g id="svg_75" transform="translate(266.200749, 276.562849)">
    <g id="svg_76">
     <path d="m-0.12,1.39c0.96,0 2.2,-1.01 2.78,-1.85l0.08,-0.06c0.75,-0.23 1.68,-0.52 2.66,-0.81c0.98,-0.29 2.02,-0.58 2.89,-0.87c0.09,-0.02 0.11,-0.08 0.11,-0.17c0,-0.08 -0.06,-0.14 -0.14,-0.14l-0.06,0c-0.86,0.29 -1.91,0.58 -2.89,0.87c-0.81,0.23 -1.61,0.48 -2.31,0.69c-0.03,0.02 -0.05,0 -0.05,-0.06c0.02,-0.06 0.02,-0.12 0.05,-0.15c0,-0.29 -0.2,-0.4 -0.55,-0.4c-0.23,0 -0.52,0.06 -0.83,0.11c-0.32,0.06 -0.67,0.12 -0.93,0.12c-0.26,0 -0.34,-0.06 -0.34,-0.14c0,-0.67 1.5,-1.82 2.36,-1.82c0.15,0 0.18,0.06 0.18,0.14c0,0.2 -0.26,0.52 -0.46,0.64c-0.06,0.03 -0.09,0.08 -0.09,0.14c0,0.12 0.09,0.17 0.17,0.17c0.03,0 0.06,0 0.09,-0.02c0.26,-0.15 0.52,-0.49 0.61,-0.84c0.02,-0.03 0.02,-0.09 0.02,-0.12c0,-0.26 -0.2,-0.43 -0.52,-0.43c-1.03,0 -2.71,1.3 -2.71,2.14c0,0.31 0.26,0.46 0.69,0.46c0.29,0 0.64,-0.06 0.99,-0.12c0.23,-0.03 0.95,-0.14 0.98,-0.05c0.05,0.08 -0.06,0.23 -0.15,0.37c0,0.03 -0.03,0.03 -0.06,0.03c-1.15,0.43 -3.06,1.24 -3.06,1.79c0,0.26 0.18,0.38 0.49,0.38zm0,-0.35c-0.14,0 -0.17,0 -0.17,-0.06c0,-0.14 1.01,-0.72 2.22,-1.21c0.09,0 0.12,0.03 0.06,0.09c-0.58,0.6 -1.44,1.18 -2.11,1.18zm0,0" id="svg_77"/>
    </g>
   </g>
  </g>
  <g fill="#737373" id="svg_78">
   <g id="svg_79" transform="translate(273.806354, 276.562849)">
    <g id="svg_80"/>
   </g>
  </g>
  <g fill="#737373" id="svg_81">
   <g id="svg_82" transform="translate(111.246369, 226.054219)">
    <g id="svg_83">
     <path d="m2.03,-12.47l1.31,0l0,11.33l6.99,0l0,1.14l-8.3,0l0,-12.47zm0,0" id="svg_84"/>
    </g>
   </g>
  </g>
  <g fill="#737373" id="svg_85">
   <g id="svg_86" transform="translate(121.737957, 226.054219)">
    <g id="svg_87">
     <path d="m2.03,-12.47l1.31,0l0,12.47l-1.31,0l0,-12.47zm0,0" id="svg_88"/>
    </g>
   </g>
  </g>
  <g fill="#737373" id="svg_89">
   <g id="svg_90" transform="translate(127.117343, 226.054219)">
    <g id="svg_91">
     <path d="m14.98,-12.47l0,12.47l-1.26,0l0,-9.97l-4.91,8.39l-0.62,0l-4.89,-8.34l0,9.92l-1.27,0l0,-12.47l1.08,0l5.42,9.25l5.36,-9.25l1.09,0zm0,0" id="svg_92"/>
    </g>
   </g>
  </g>
  <g fill="#737373" id="svg_93">
   <g id="svg_94" transform="translate(144.128 226.054)">
    <g id="svg_95">
     <path d="m7.84,-4.33l-6.93,0l-1.5,3.33l-1.38,0l5.7,-12.47l1.3,0l5.7,12.47l-1.39,0l-1.5,-3.33zm-0.46,-1.08l-3,-6.68l-2.99,6.68l5.99,0zm0,0" id="svg_96"/>
    </g>
   </g>
  </g>
  <g fill="#737373" id="svg_97">
   <g id="svg_98" transform="translate(162.434612, 224.762402)">
    <g id="svg_99">
     <path d="m3.98,-10.53l0,3.8l6.04,0l0,1.95l-6.04,0l0,4.78l-2.31,0l0,-12.47l9.11,0l0,1.94l-6.8,0zm0,0" id="svg_100"/>
    </g>
   </g>
  </g>
  <g fill="#737373" id="svg_101">
   <g id="svg_102" transform="translate(173.781211, 224.762402)">
    <g id="svg_103">
     <path d="m7.5,0.17c-1.27,0 -2.42,-0.27 -3.44,-0.83c-1.02,-0.55 -1.82,-1.31 -2.4,-2.29c-0.59,-0.98 -0.88,-2.07 -0.88,-3.28c0,-1.21 0.29,-2.31 0.88,-3.29c0.58,-0.97 1.38,-1.74 2.4,-2.29c1.02,-0.55 2.17,-0.83 3.44,-0.83c1.27,0 2.41,0.28 3.44,0.83c1.02,0.55 1.82,1.32 2.4,2.29c0.59,0.97 0.88,2.07 0.88,3.29c0,1.21 -0.29,2.32 -0.88,3.29c-0.58,0.97 -1.38,1.73 -2.4,2.28c-1.03,0.56 -2.17,0.83 -3.44,0.83zm0,-2.03c0.83,0 1.58,-0.18 2.23,-0.55c0.67,-0.37 1.19,-0.89 1.57,-1.56c0.38,-0.67 0.58,-1.43 0.58,-2.26c0,-0.84 -0.2,-1.59 -0.58,-2.25c-0.38,-0.68 -0.9,-1.2 -1.57,-1.57c-0.65,-0.37 -1.4,-0.56 -2.23,-0.56c-0.84,0 -1.59,0.19 -2.25,0.56c-0.67,0.37 -1.2,0.89 -1.58,1.57c-0.37,0.66 -0.56,1.41 -0.56,2.25c0,0.83 0.19,1.59 0.56,2.26c0.38,0.67 0.91,1.19 1.58,1.56c0.66,0.37 1.41,0.55 2.25,0.55zm0,0" id="svg_104"/>
    </g>
   </g>
  </g>
  <g fill="#737373" id="svg_105">
   <g id="svg_106" transform="translate(188.779379, 224.762402)">
    <g id="svg_107">
     <path d="m4.2,-10.52l-4.12,0l0,-1.95l10.58,0l0,1.95l-4.14,0l0,10.52l-2.32,0l0,-10.52zm0,0" id="svg_108"/>
    </g>
   </g>
  </g>
  <g fill="#737373" id="svg_109">
   <g id="svg_110" transform="translate(199.502538, 224.762402)">
    <g id="svg_111">
     <path d="m7.5,0.17c-1.27,0 -2.42,-0.27 -3.44,-0.83c-1.02,-0.55 -1.82,-1.31 -2.4,-2.29c-0.59,-0.98 -0.88,-2.07 -0.88,-3.28c0,-1.21 0.29,-2.31 0.88,-3.29c0.58,-0.97 1.38,-1.74 2.4,-2.29c1.02,-0.55 2.17,-0.83 3.44,-0.83c1.27,0 2.41,0.28 3.44,0.83c1.02,0.55 1.82,1.32 2.4,2.29c0.59,0.97 0.88,2.07 0.88,3.29c0,1.21 -0.29,2.32 -0.88,3.29c-0.58,0.97 -1.38,1.73 -2.4,2.28c-1.03,0.56 -2.17,0.83 -3.44,0.83zm0,-2.03c0.83,0 1.58,-0.18 2.23,-0.55c0.67,-0.37 1.19,-0.89 1.57,-1.56c0.38,-0.67 0.58,-1.43 0.58,-2.26c0,-0.84 -0.2,-1.59 -0.58,-2.25c-0.38,-0.68 -0.9,-1.2 -1.57,-1.57c-0.65,-0.37 -1.4,-0.56 -2.23,-0.56c-0.84,0 -1.59,0.19 -2.25,0.56c-0.67,0.37 -1.2,0.89 -1.58,1.57c-0.37,0.66 -0.56,1.41 -0.56,2.25c0,0.83 0.19,1.59 0.56,2.26c0.38,0.67 0.91,1.19 1.58,1.56c0.66,0.37 1.41,0.55 2.25,0.55zm0,0" id="svg_112"/>
    </g>
   </g>
  </g>
  <g fill="#737373" id="svg_113">
   <g id="svg_114" transform="translate(214.500707, 224.762402)">
    <g id="svg_115">
     <path d="m10.19,-6.38l2.19,0l0,4.97c-0.64,0.52 -1.39,0.91 -2.24,1.18c-0.85,0.27 -1.73,0.4 -2.64,0.4c-1.27,0 -2.42,-0.27 -3.44,-0.83c-1.02,-0.55 -1.82,-1.31 -2.4,-2.28c-0.59,-0.97 -0.88,-2.08 -0.88,-3.29c0,-1.22 0.29,-2.32 0.88,-3.29c0.58,-0.97 1.38,-1.74 2.4,-2.29c1.03,-0.55 2.19,-0.83 3.47,-0.83c1.05,0 2.01,0.17 2.86,0.51c0.85,0.35 1.57,0.86 2.16,1.52l-1.47,1.42c-0.95,-0.94 -2.1,-1.42 -3.44,-1.42c-0.87,0 -1.66,0.18 -2.34,0.55c-0.68,0.36 -1.22,0.88 -1.61,1.54c-0.39,0.67 -0.58,1.43 -0.58,2.29c0,0.83 0.19,1.58 0.58,2.25c0.39,0.65 0.93,1.18 1.61,1.56c0.68,0.37 1.46,0.56 2.33,0.56c0.96,0 1.82,-0.21 2.56,-0.64l0,-3.88zm0,0" id="svg_116"/>
    </g>
   </g>
  </g>
  <g fill="#737373" id="svg_117">
   <g id="svg_118" transform="translate(228.251995, 224.762402)">
    <g id="svg_119">
     <path d="m9.83,0l-2.55,-3.66c-0.1,0.02 -0.26,0.02 -0.48,0.02l-2.82,0l0,3.64l-2.31,0l0,-12.47l5.13,0c1.08,0 2.02,0.18 2.83,0.53c0.8,0.36 1.41,0.87 1.84,1.53c0.42,0.67 0.64,1.46 0.64,2.38c0,0.94 -0.23,1.74 -0.69,2.42c-0.46,0.68 -1.12,1.18 -1.97,1.52l2.88,4.09l-2.5,0zm-0.05,-8.03c0,-0.8 -0.26,-1.42 -0.78,-1.85c-0.52,-0.42 -1.29,-0.64 -2.3,-0.64l-2.72,0l0,4.97l2.72,0c1.01,0 1.78,-0.21 2.3,-0.64c0.52,-0.44 0.78,-1.05 0.78,-1.84zm0,0" id="svg_120"/>
    </g>
   </g>
  </g>
  <g fill="#737373" id="svg_121">
   <g id="svg_122" transform="translate(241.272967, 224.762402)">
    <g id="svg_123">
     <path d="m9.77,-2.89l-6.24,0l-1.23,2.89l-2.39,0l5.61,-12.47l2.28,0l5.64,12.47l-2.42,0l-1.25,-2.89zm-0.77,-1.81l-2.36,-5.46l-2.33,5.46l4.69,0zm0,0" id="svg_124"/>
    </g>
   </g>
  </g>
  <g fill="#737373" id="svg_125">
   <g id="svg_126" transform="translate(254.614569, 224.762402)">
    <g id="svg_127">
     <path d="m3.98,-10.53l0,3.8l6.04,0l0,1.95l-6.04,0l0,4.78l-2.31,0l0,-12.47l9.11,0l0,1.94l-6.8,0zm0,0" id="svg_128"/>
    </g>
   </g>
  </g>
  <g fill="#737373" id="svg_129">
   <g id="svg_130" transform="translate(265.961168, 224.762402)">
    <g id="svg_131">
     <path d="m1.67,-12.47l2.31,0l0,12.47l-2.31,0l0,-12.47zm0,0" id="svg_132"/>
    </g>
   </g>
  </g>
  <g fill="#737373" id="svg_133">
   <g id="svg_134" transform="translate(271.643376, 224.762402)">
    <g id="svg_135">
     <path d="m9.77,-2.89l-6.24,0l-1.23,2.89l-2.39,0l5.61,-12.47l2.28,0l5.64,12.47l-2.42,0l-1.25,-2.89zm-0.77,-1.81l-2.36,-5.46l-2.33,5.46l4.69,0zm0,0" id="svg_136"/>
    </g>
   </g>
  </g>
  <g fill="#737373" id="svg_137">
   <g id="svg_138" transform="translate(284.989292, 224.762402)">
    <g id="svg_139"/>
   </g>
  </g>
 </g>
</svg>